<mxfile host="app.diagrams.net" agent="Mozilla/5.0 (X11; Linux x86_64) AppleWebKit/537.36 (KHTML, like Gecko) Chrome/127.0.0.0 Safari/537.36" version="24.7.7">
  <diagram name="Page-1" id="k4AMHLUKt4f7iEsvk9Cv">
    <mxGraphModel dx="5647" dy="3543" grid="1" gridSize="10" guides="1" tooltips="1" connect="1" arrows="1" fold="1" page="1" pageScale="1" pageWidth="850" pageHeight="1100" math="0" shadow="0">
      <root>
        <mxCell id="0" />
        <mxCell id="1" parent="0" />
        <mxCell id="GMAntxRL4f5Q_UuFzmdd-48" style="edgeStyle=orthogonalEdgeStyle;rounded=0;orthogonalLoop=1;jettySize=auto;html=1;" edge="1" parent="1" source="GMAntxRL4f5Q_UuFzmdd-2" target="GMAntxRL4f5Q_UuFzmdd-27">
          <mxGeometry relative="1" as="geometry" />
        </mxCell>
        <mxCell id="GMAntxRL4f5Q_UuFzmdd-2" value="&lt;font style=&quot;font-size: 50px;&quot;&gt;malloc(size)&lt;/font&gt;" style="rounded=0;whiteSpace=wrap;html=1;" vertex="1" parent="1">
          <mxGeometry x="475" y="-310" width="340" height="140" as="geometry" />
        </mxCell>
        <mxCell id="GMAntxRL4f5Q_UuFzmdd-50" style="edgeStyle=orthogonalEdgeStyle;rounded=0;orthogonalLoop=1;jettySize=auto;html=1;" edge="1" parent="1" source="GMAntxRL4f5Q_UuFzmdd-4">
          <mxGeometry relative="1" as="geometry">
            <mxPoint x="1310" y="210" as="targetPoint" />
          </mxGeometry>
        </mxCell>
        <mxCell id="GMAntxRL4f5Q_UuFzmdd-4" value="&lt;font style=&quot;font-size: 50px;&quot;&gt;i = next free space node&lt;/font&gt;" style="rounded=0;whiteSpace=wrap;html=1;" vertex="1" parent="1">
          <mxGeometry x="1075" y="290" width="470" height="140" as="geometry" />
        </mxCell>
        <mxCell id="GMAntxRL4f5Q_UuFzmdd-55" style="edgeStyle=orthogonalEdgeStyle;rounded=0;orthogonalLoop=1;jettySize=auto;html=1;entryX=0;entryY=0.75;entryDx=0;entryDy=0;" edge="1" parent="1" source="GMAntxRL4f5Q_UuFzmdd-7" target="GMAntxRL4f5Q_UuFzmdd-42">
          <mxGeometry relative="1" as="geometry" />
        </mxCell>
        <mxCell id="GMAntxRL4f5Q_UuFzmdd-58" style="edgeStyle=orthogonalEdgeStyle;rounded=0;orthogonalLoop=1;jettySize=auto;html=1;" edge="1" parent="1" source="GMAntxRL4f5Q_UuFzmdd-7" target="GMAntxRL4f5Q_UuFzmdd-41">
          <mxGeometry relative="1" as="geometry" />
        </mxCell>
        <mxCell id="GMAntxRL4f5Q_UuFzmdd-7" value="&lt;font style=&quot;font-size: 35px;&quot;&gt;SimHeap[i] &amp;gt;= size &lt;br&gt;&amp;amp;&amp;amp; SimHeap[suitable] &amp;gt; SimHeap[i]&lt;/font&gt;" style="rhombus;whiteSpace=wrap;html=1;" vertex="1" parent="1">
          <mxGeometry x="359.5" y="1085" width="571" height="370" as="geometry" />
        </mxCell>
        <mxCell id="GMAntxRL4f5Q_UuFzmdd-54" style="edgeStyle=orthogonalEdgeStyle;rounded=0;orthogonalLoop=1;jettySize=auto;html=1;" edge="1" parent="1" source="GMAntxRL4f5Q_UuFzmdd-9" target="GMAntxRL4f5Q_UuFzmdd-7">
          <mxGeometry relative="1" as="geometry" />
        </mxCell>
        <mxCell id="GMAntxRL4f5Q_UuFzmdd-9" value="&lt;span style=&quot;font-size: 50px;&quot;&gt;suitable == i&lt;/span&gt;" style="rounded=0;whiteSpace=wrap;html=1;" vertex="1" parent="1">
          <mxGeometry x="455" y="635" width="380" height="110" as="geometry" />
        </mxCell>
        <mxCell id="GMAntxRL4f5Q_UuFzmdd-69" style="edgeStyle=orthogonalEdgeStyle;rounded=0;orthogonalLoop=1;jettySize=auto;html=1;" edge="1" parent="1" source="GMAntxRL4f5Q_UuFzmdd-12" target="GMAntxRL4f5Q_UuFzmdd-14">
          <mxGeometry relative="1" as="geometry" />
        </mxCell>
        <mxCell id="GMAntxRL4f5Q_UuFzmdd-72" style="edgeStyle=orthogonalEdgeStyle;rounded=0;orthogonalLoop=1;jettySize=auto;html=1;" edge="1" parent="1" source="GMAntxRL4f5Q_UuFzmdd-12" target="GMAntxRL4f5Q_UuFzmdd-16">
          <mxGeometry relative="1" as="geometry" />
        </mxCell>
        <mxCell id="GMAntxRL4f5Q_UuFzmdd-12" value="&lt;span style=&quot;font-size: 50px;&quot;&gt;i == Tail&lt;/span&gt;" style="rhombus;whiteSpace=wrap;html=1;" vertex="1" parent="1">
          <mxGeometry x="2480" y="885" width="280" height="200" as="geometry" />
        </mxCell>
        <mxCell id="GMAntxRL4f5Q_UuFzmdd-67" style="edgeStyle=orthogonalEdgeStyle;rounded=0;orthogonalLoop=1;jettySize=auto;html=1;entryX=0.5;entryY=0;entryDx=0;entryDy=0;" edge="1" parent="1" source="GMAntxRL4f5Q_UuFzmdd-14" target="GMAntxRL4f5Q_UuFzmdd-17">
          <mxGeometry relative="1" as="geometry" />
        </mxCell>
        <mxCell id="GMAntxRL4f5Q_UuFzmdd-14" value="&lt;span style=&quot;font-size: 50px;&quot;&gt;case 2&lt;/span&gt;" style="rounded=0;whiteSpace=wrap;html=1;" vertex="1" parent="1">
          <mxGeometry x="2495" y="1190" width="250" height="140" as="geometry" />
        </mxCell>
        <mxCell id="GMAntxRL4f5Q_UuFzmdd-64" style="edgeStyle=orthogonalEdgeStyle;rounded=0;orthogonalLoop=1;jettySize=auto;html=1;" edge="1" parent="1" source="GMAntxRL4f5Q_UuFzmdd-16" target="GMAntxRL4f5Q_UuFzmdd-17">
          <mxGeometry relative="1" as="geometry">
            <Array as="points">
              <mxPoint x="3105" y="1430" />
              <mxPoint x="2560" y="1430" />
            </Array>
          </mxGeometry>
        </mxCell>
        <mxCell id="GMAntxRL4f5Q_UuFzmdd-16" value="&lt;span style=&quot;font-size: 50px;&quot;&gt;case 3&lt;/span&gt;" style="rounded=0;whiteSpace=wrap;html=1;" vertex="1" parent="1">
          <mxGeometry x="2980" y="915" width="250" height="140" as="geometry" />
        </mxCell>
        <mxCell id="GMAntxRL4f5Q_UuFzmdd-17" value="&lt;span style=&quot;font-size: 50px;&quot;&gt;return :&lt;br&gt;1-&amp;nbsp;return value point to the beginning of data space&lt;br&gt;2-&amp;nbsp;edit metadata of new allocation to new allocation available space&lt;/span&gt;" style="rounded=0;whiteSpace=wrap;html=1;" vertex="1" parent="1">
          <mxGeometry x="1790" y="1500" width="1540" height="240" as="geometry" />
        </mxCell>
        <mxCell id="GMAntxRL4f5Q_UuFzmdd-51" style="edgeStyle=orthogonalEdgeStyle;rounded=0;orthogonalLoop=1;jettySize=auto;html=1;entryX=0.5;entryY=1;entryDx=0;entryDy=0;" edge="1" parent="1" source="GMAntxRL4f5Q_UuFzmdd-20" target="GMAntxRL4f5Q_UuFzmdd-22">
          <mxGeometry relative="1" as="geometry" />
        </mxCell>
        <mxCell id="GMAntxRL4f5Q_UuFzmdd-57" style="edgeStyle=orthogonalEdgeStyle;rounded=0;orthogonalLoop=1;jettySize=auto;html=1;" edge="1" parent="1" source="GMAntxRL4f5Q_UuFzmdd-20">
          <mxGeometry relative="1" as="geometry">
            <mxPoint x="650" y="140" as="targetPoint" />
          </mxGeometry>
        </mxCell>
        <mxCell id="GMAntxRL4f5Q_UuFzmdd-20" value="&lt;font style=&quot;font-size: 45px;&quot;&gt;i == -1&lt;/font&gt;" style="rhombus;whiteSpace=wrap;html=1;" vertex="1" parent="1">
          <mxGeometry x="1170" y="40" width="280" height="200" as="geometry" />
        </mxCell>
        <mxCell id="GMAntxRL4f5Q_UuFzmdd-52" style="edgeStyle=orthogonalEdgeStyle;rounded=0;orthogonalLoop=1;jettySize=auto;html=1;" edge="1" parent="1" source="GMAntxRL4f5Q_UuFzmdd-22">
          <mxGeometry relative="1" as="geometry">
            <mxPoint x="650" y="-110" as="targetPoint" />
          </mxGeometry>
        </mxCell>
        <mxCell id="GMAntxRL4f5Q_UuFzmdd-22" value="&lt;font style=&quot;font-size: 50px;&quot;&gt;Extend break&lt;/font&gt;" style="rounded=0;whiteSpace=wrap;html=1;" vertex="1" parent="1">
          <mxGeometry x="1075" y="-180" width="470" height="140" as="geometry" />
        </mxCell>
        <mxCell id="GMAntxRL4f5Q_UuFzmdd-47" style="edgeStyle=orthogonalEdgeStyle;rounded=0;orthogonalLoop=1;jettySize=auto;html=1;" edge="1" parent="1" source="GMAntxRL4f5Q_UuFzmdd-24" target="GMAntxRL4f5Q_UuFzmdd-2">
          <mxGeometry relative="1" as="geometry" />
        </mxCell>
        <mxCell id="GMAntxRL4f5Q_UuFzmdd-24" value="&lt;font style=&quot;font-size: 45px;&quot;&gt;start&lt;/font&gt;" style="ellipse;whiteSpace=wrap;html=1;" vertex="1" parent="1">
          <mxGeometry x="520" y="-600" width="250" height="180" as="geometry" />
        </mxCell>
        <mxCell id="GMAntxRL4f5Q_UuFzmdd-49" style="edgeStyle=orthogonalEdgeStyle;rounded=0;orthogonalLoop=1;jettySize=auto;html=1;" edge="1" parent="1" source="GMAntxRL4f5Q_UuFzmdd-27">
          <mxGeometry relative="1" as="geometry">
            <mxPoint x="1070" y="360" as="targetPoint" />
          </mxGeometry>
        </mxCell>
        <mxCell id="GMAntxRL4f5Q_UuFzmdd-53" style="edgeStyle=orthogonalEdgeStyle;rounded=0;orthogonalLoop=1;jettySize=auto;html=1;entryX=0.5;entryY=0;entryDx=0;entryDy=0;" edge="1" parent="1" source="GMAntxRL4f5Q_UuFzmdd-27" target="GMAntxRL4f5Q_UuFzmdd-9">
          <mxGeometry relative="1" as="geometry" />
        </mxCell>
        <mxCell id="GMAntxRL4f5Q_UuFzmdd-27" value="&lt;span style=&quot;font-size: 50px;&quot;&gt;SimHeap[i] &amp;gt;= Size&lt;/span&gt;" style="rhombus;whiteSpace=wrap;html=1;" vertex="1" parent="1">
          <mxGeometry x="505" y="260" width="280" height="200" as="geometry" />
        </mxCell>
        <mxCell id="GMAntxRL4f5Q_UuFzmdd-28" style="edgeStyle=orthogonalEdgeStyle;rounded=0;orthogonalLoop=1;jettySize=auto;html=1;exitX=0.5;exitY=1;exitDx=0;exitDy=0;" edge="1" parent="1" source="GMAntxRL4f5Q_UuFzmdd-22" target="GMAntxRL4f5Q_UuFzmdd-22">
          <mxGeometry relative="1" as="geometry" />
        </mxCell>
        <mxCell id="GMAntxRL4f5Q_UuFzmdd-29" value="&lt;font style=&quot;font-size: 40px;&quot;&gt;No&lt;/font&gt;" style="text;html=1;align=center;verticalAlign=middle;whiteSpace=wrap;rounded=0;" vertex="1" parent="1">
          <mxGeometry x="1680" y="940" width="60" height="30" as="geometry" />
        </mxCell>
        <mxCell id="GMAntxRL4f5Q_UuFzmdd-30" value="&lt;font style=&quot;font-size: 40px;&quot;&gt;No&lt;/font&gt;" style="text;html=1;align=center;verticalAlign=middle;whiteSpace=wrap;rounded=0;" vertex="1" parent="1">
          <mxGeometry x="980" y="1200" width="60" height="30" as="geometry" />
        </mxCell>
        <mxCell id="GMAntxRL4f5Q_UuFzmdd-31" value="&lt;font style=&quot;font-size: 40px;&quot;&gt;No&lt;/font&gt;" style="text;html=1;align=center;verticalAlign=middle;whiteSpace=wrap;rounded=0;" vertex="1" parent="1">
          <mxGeometry x="910" y="300" width="60" height="30" as="geometry" />
        </mxCell>
        <mxCell id="GMAntxRL4f5Q_UuFzmdd-32" value="&lt;font style=&quot;font-size: 40px;&quot;&gt;No&lt;/font&gt;" style="text;html=1;align=center;verticalAlign=middle;whiteSpace=wrap;rounded=0;" vertex="1" parent="1">
          <mxGeometry x="920" y="80" width="60" height="30" as="geometry" />
        </mxCell>
        <mxCell id="GMAntxRL4f5Q_UuFzmdd-33" value="&lt;font style=&quot;font-size: 40px;&quot;&gt;Yes&lt;/font&gt;" style="text;html=1;align=center;verticalAlign=middle;whiteSpace=wrap;rounded=0;" vertex="1" parent="1">
          <mxGeometry x="560" y="1520" width="60" height="30" as="geometry" />
        </mxCell>
        <mxCell id="GMAntxRL4f5Q_UuFzmdd-34" value="&lt;font style=&quot;font-size: 40px;&quot;&gt;Yes&lt;/font&gt;" style="text;html=1;align=center;verticalAlign=middle;whiteSpace=wrap;rounded=0;" vertex="1" parent="1">
          <mxGeometry x="1340" width="60" height="30" as="geometry" />
        </mxCell>
        <mxCell id="GMAntxRL4f5Q_UuFzmdd-35" value="&lt;font style=&quot;font-size: 40px;&quot;&gt;Yes&lt;/font&gt;" style="text;html=1;align=center;verticalAlign=middle;whiteSpace=wrap;rounded=0;" vertex="1" parent="1">
          <mxGeometry x="560" y="535" width="60" height="30" as="geometry" />
        </mxCell>
        <mxCell id="GMAntxRL4f5Q_UuFzmdd-36" value="&lt;font style=&quot;font-size: 40px;&quot;&gt;Yes&lt;/font&gt;" style="text;html=1;align=center;verticalAlign=middle;whiteSpace=wrap;rounded=0;" vertex="1" parent="1">
          <mxGeometry x="1000" y="760" width="60" height="30" as="geometry" />
        </mxCell>
        <mxCell id="GMAntxRL4f5Q_UuFzmdd-61" style="edgeStyle=orthogonalEdgeStyle;rounded=0;orthogonalLoop=1;jettySize=auto;html=1;" edge="1" parent="1" source="GMAntxRL4f5Q_UuFzmdd-41">
          <mxGeometry relative="1" as="geometry">
            <mxPoint x="1420" y="1310" as="targetPoint" />
          </mxGeometry>
        </mxCell>
        <mxCell id="GMAntxRL4f5Q_UuFzmdd-41" value="&lt;span style=&quot;font-size: 50px;&quot;&gt;suitable == i&lt;/span&gt;" style="rounded=0;whiteSpace=wrap;html=1;" vertex="1" parent="1">
          <mxGeometry x="455" y="1610" width="380" height="110" as="geometry" />
        </mxCell>
        <mxCell id="GMAntxRL4f5Q_UuFzmdd-56" style="edgeStyle=orthogonalEdgeStyle;rounded=0;orthogonalLoop=1;jettySize=auto;html=1;" edge="1" parent="1" source="GMAntxRL4f5Q_UuFzmdd-42" target="GMAntxRL4f5Q_UuFzmdd-46">
          <mxGeometry relative="1" as="geometry" />
        </mxCell>
        <mxCell id="GMAntxRL4f5Q_UuFzmdd-42" value="&lt;font style=&quot;font-size: 50px;&quot;&gt;i = next free space node&lt;/font&gt;" style="rounded=0;whiteSpace=wrap;html=1;" vertex="1" parent="1">
          <mxGeometry x="1180" y="1165" width="470" height="140" as="geometry" />
        </mxCell>
        <mxCell id="GMAntxRL4f5Q_UuFzmdd-60" style="edgeStyle=orthogonalEdgeStyle;rounded=0;orthogonalLoop=1;jettySize=auto;html=1;entryX=0.5;entryY=0;entryDx=0;entryDy=0;" edge="1" parent="1" source="GMAntxRL4f5Q_UuFzmdd-46" target="GMAntxRL4f5Q_UuFzmdd-7">
          <mxGeometry relative="1" as="geometry">
            <Array as="points">
              <mxPoint x="1415" y="810" />
              <mxPoint x="645" y="810" />
            </Array>
          </mxGeometry>
        </mxCell>
        <mxCell id="GMAntxRL4f5Q_UuFzmdd-70" style="edgeStyle=orthogonalEdgeStyle;rounded=0;orthogonalLoop=1;jettySize=auto;html=1;" edge="1" parent="1" source="GMAntxRL4f5Q_UuFzmdd-46" target="GMAntxRL4f5Q_UuFzmdd-62">
          <mxGeometry relative="1" as="geometry" />
        </mxCell>
        <mxCell id="GMAntxRL4f5Q_UuFzmdd-46" value="&lt;font style=&quot;font-size: 45px;&quot;&gt;i == -1&lt;/font&gt;" style="rhombus;whiteSpace=wrap;html=1;" vertex="1" parent="1">
          <mxGeometry x="1275" y="885" width="280" height="200" as="geometry" />
        </mxCell>
        <mxCell id="GMAntxRL4f5Q_UuFzmdd-68" style="edgeStyle=orthogonalEdgeStyle;rounded=0;orthogonalLoop=1;jettySize=auto;html=1;" edge="1" parent="1" source="GMAntxRL4f5Q_UuFzmdd-62" target="GMAntxRL4f5Q_UuFzmdd-63">
          <mxGeometry relative="1" as="geometry" />
        </mxCell>
        <mxCell id="GMAntxRL4f5Q_UuFzmdd-71" style="edgeStyle=orthogonalEdgeStyle;rounded=0;orthogonalLoop=1;jettySize=auto;html=1;" edge="1" parent="1" source="GMAntxRL4f5Q_UuFzmdd-62" target="GMAntxRL4f5Q_UuFzmdd-12">
          <mxGeometry relative="1" as="geometry" />
        </mxCell>
        <mxCell id="GMAntxRL4f5Q_UuFzmdd-62" value="&lt;span style=&quot;font-size: 50px;&quot;&gt;i == Head&lt;/span&gt;" style="rhombus;whiteSpace=wrap;html=1;" vertex="1" parent="1">
          <mxGeometry x="1900" y="885" width="280" height="200" as="geometry" />
        </mxCell>
        <mxCell id="GMAntxRL4f5Q_UuFzmdd-66" style="edgeStyle=orthogonalEdgeStyle;rounded=0;orthogonalLoop=1;jettySize=auto;html=1;" edge="1" parent="1" source="GMAntxRL4f5Q_UuFzmdd-63">
          <mxGeometry relative="1" as="geometry">
            <mxPoint x="2560.000000000001" y="1490" as="targetPoint" />
            <Array as="points">
              <mxPoint x="2040" y="1420" />
              <mxPoint x="2560" y="1420" />
            </Array>
          </mxGeometry>
        </mxCell>
        <mxCell id="GMAntxRL4f5Q_UuFzmdd-63" value="&lt;span style=&quot;font-size: 50px;&quot;&gt;case 1&lt;/span&gt;" style="rounded=0;whiteSpace=wrap;html=1;" vertex="1" parent="1">
          <mxGeometry x="1915" y="1165" width="250" height="140" as="geometry" />
        </mxCell>
        <mxCell id="GMAntxRL4f5Q_UuFzmdd-76" value="&lt;font style=&quot;font-size: 40px;&quot;&gt;No&lt;/font&gt;" style="text;html=1;align=center;verticalAlign=middle;whiteSpace=wrap;rounded=0;" vertex="1" parent="1">
          <mxGeometry x="2290" y="940" width="60" height="30" as="geometry" />
        </mxCell>
        <mxCell id="GMAntxRL4f5Q_UuFzmdd-77" value="&lt;font style=&quot;font-size: 40px;&quot;&gt;No&lt;/font&gt;" style="text;html=1;align=center;verticalAlign=middle;whiteSpace=wrap;rounded=0;" vertex="1" parent="1">
          <mxGeometry x="2830" y="940" width="60" height="30" as="geometry" />
        </mxCell>
        <mxCell id="GMAntxRL4f5Q_UuFzmdd-78" value="&lt;font style=&quot;font-size: 40px;&quot;&gt;Yes&lt;/font&gt;" style="text;html=1;align=center;verticalAlign=middle;whiteSpace=wrap;rounded=0;" vertex="1" parent="1">
          <mxGeometry x="1920" y="1085" width="60" height="30" as="geometry" />
        </mxCell>
        <mxCell id="GMAntxRL4f5Q_UuFzmdd-79" value="&lt;font style=&quot;font-size: 40px;&quot;&gt;Yes&lt;/font&gt;" style="text;html=1;align=center;verticalAlign=middle;whiteSpace=wrap;rounded=0;" vertex="1" parent="1">
          <mxGeometry x="2520" y="1100" width="60" height="30" as="geometry" />
        </mxCell>
      </root>
    </mxGraphModel>
  </diagram>
</mxfile>
